<?xml version="1.0" standalone="no"?><svg xmlns="http://www.w3.org/2000/svg" viewBox="0 0 1440 320"><path fill="#1f1f1f" fill-opacity="1" d="M0,288L30,250.7C60,213,120,139,180,128C240,117,300,171,360,160C420,149,480,75,540,58.7C600,43,660,85,720,128C780,171,840,213,900,234.7C960,256,1020,256,1080,218.7C1140,181,1200,107,1260,69.3C1320,32,1380,32,1410,32L1440,32L1440,320L1410,320C1380,320,1320,320,1260,320C1200,320,1140,320,1080,320C1020,320,960,320,900,320C840,320,780,320,720,320C660,320,600,320,540,320C480,320,420,320,360,320C300,320,240,320,180,320C120,320,60,320,30,320L0,320Z"></path></svg>